# xmcd CD database file
#
# Track frame offsets:
#	182
#	35377
#	64660
#	105345
#	127232
#	168575
#	187905
#	220377
#	259482
#
# Disc length: 4277 seconds
#
# Revision: 1
# Processed by: cddbd v1.5.2PL0 Copyright (c) Steve Scherf et al.
# Submitted via: CDex 1.51
#
DISCID=8310b309
DTITLE=Dexter Gordon Quartet - Giants of Jazz - Disc 065  1955-1967
DYEAR=1968
DGENRE=Jazz
TTITLE0=Confirmation
TTITLE1=Autumn In New York
TTITLE2=You Can Depend On Me
TTITLE3=Number Four
TTITLE4=Daddy Plays The Horn
TTITLE5=Darn That Dream
TTITLE6=Doxy
TTITLE7=For All We Know
TTITLE8=Cheese Cake
EXTD=YEAR: 1968
EXTT0=
EXTT1=
EXTT2=
EXTT3=
EXTT4=
EXTT5=
EXTT6=
EXTT7=
EXTT8=
PLAYORDER=
